<svg id="visual" viewBox="0 0 960 300" width="960" height="300" xmlns="http://www.w3.org/2000/svg" xmlns:xlink="http://www.w3.org/1999/xlink" version="1.1"><rect x="0" y="0" width="960" height="300" fill="#f5f5dd"></rect><path d="M0 198L17.8 197.5C35.7 197 71.3 196 106.8 190C142.3 184 177.7 173 213.2 173.8C248.7 174.7 284.3 187.3 320 194.2C355.7 201 391.3 202 426.8 194.5C462.3 187 497.7 171 533.2 173C568.7 175 604.3 195 640 198.3C675.7 201.7 711.3 188.3 746.8 188.5C782.3 188.7 817.7 202.3 853.2 203.7C888.7 205 924.3 194 942.2 188.5L960 183L960 0L942.2 0C924.3 0 888.7 0 853.2 0C817.7 0 782.3 0 746.8 0C711.3 0 675.7 0 640 0C604.3 0 568.7 0 533.2 0C497.7 0 462.3 0 426.8 0C391.3 0 355.7 0 320 0C284.3 0 248.7 0 213.2 0C177.7 0 142.3 0 106.8 0C71.3 0 35.7 0 17.8 0L0 0Z" fill="#66aacf"></path><path d="M0 165L17.8 159C35.7 153 71.3 141 106.8 145C142.3 149 177.7 169 213.2 170.7C248.7 172.3 284.3 155.7 320 150.8C355.7 146 391.3 153 426.8 152.2C462.3 151.3 497.7 142.7 533.2 141.5C568.7 140.3 604.3 146.7 640 155.8C675.7 165 711.3 177 746.8 178.3C782.3 179.7 817.7 170.3 853.2 165C888.7 159.7 924.3 158.3 942.2 157.7L960 157L960 0L942.2 0C924.3 0 888.7 0 853.2 0C817.7 0 782.3 0 746.8 0C711.3 0 675.7 0 640 0C604.3 0 568.7 0 533.2 0C497.7 0 462.3 0 426.8 0C391.3 0 355.7 0 320 0C284.3 0 248.7 0 213.2 0C177.7 0 142.3 0 106.8 0C71.3 0 35.7 0 17.8 0L0 0Z" fill="#5491b3"></path><path d="M0 123L17.8 124.8C35.7 126.7 71.3 130.3 106.8 135.5C142.3 140.7 177.7 147.3 213.2 144.5C248.7 141.7 284.3 129.3 320 125.2C355.7 121 391.3 125 426.8 129.7C462.3 134.3 497.7 139.7 533.2 137.3C568.7 135 604.3 125 640 122C675.7 119 711.3 123 746.8 125.5C782.3 128 817.7 129 853.2 125.8C888.7 122.7 924.3 115.3 942.2 111.7L960 108L960 0L942.2 0C924.3 0 888.7 0 853.2 0C817.7 0 782.3 0 746.8 0C711.3 0 675.7 0 640 0C604.3 0 568.7 0 533.2 0C497.7 0 462.3 0 426.8 0C391.3 0 355.7 0 320 0C284.3 0 248.7 0 213.2 0C177.7 0 142.3 0 106.8 0C71.3 0 35.7 0 17.8 0L0 0Z" fill="#437998"></path><path d="M0 117L17.8 112C35.7 107 71.3 97 106.8 93.5C142.3 90 177.7 93 213.2 100.3C248.7 107.7 284.3 119.3 320 118.5C355.7 117.7 391.3 104.3 426.8 100.7C462.3 97 497.7 103 533.2 103.5C568.7 104 604.3 99 640 95.3C675.7 91.7 711.3 89.3 746.8 94.3C782.3 99.3 817.7 111.7 853.2 114.5C888.7 117.3 924.3 110.7 942.2 107.3L960 104L960 0L942.2 0C924.3 0 888.7 0 853.2 0C817.7 0 782.3 0 746.8 0C711.3 0 675.7 0 640 0C604.3 0 568.7 0 533.2 0C497.7 0 462.3 0 426.8 0C391.3 0 355.7 0 320 0C284.3 0 248.7 0 213.2 0C177.7 0 142.3 0 106.8 0C71.3 0 35.7 0 17.8 0L0 0Z" fill="#32627e"></path><path d="M0 70L17.8 72.2C35.7 74.3 71.3 78.7 106.8 80C142.3 81.3 177.7 79.7 213.2 77.3C248.7 75 284.3 72 320 75.3C355.7 78.7 391.3 88.3 426.8 87.8C462.3 87.3 497.7 76.7 533.2 71.5C568.7 66.3 604.3 66.7 640 70.7C675.7 74.7 711.3 82.3 746.8 88.3C782.3 94.3 817.7 98.7 853.2 100.7C888.7 102.7 924.3 102.3 942.2 102.2L960 102L960 0L942.2 0C924.3 0 888.7 0 853.2 0C817.7 0 782.3 0 746.8 0C711.3 0 675.7 0 640 0C604.3 0 568.7 0 533.2 0C497.7 0 462.3 0 426.8 0C391.3 0 355.7 0 320 0C284.3 0 248.7 0 213.2 0C177.7 0 142.3 0 106.8 0C71.3 0 35.7 0 17.8 0L0 0Z" fill="#214c65"></path><path d="M0 59L17.8 57.8C35.7 56.7 71.3 54.3 106.8 56.7C142.3 59 177.7 66 213.2 64.7C248.7 63.3 284.3 53.7 320 52.3C355.7 51 391.3 58 426.8 58.8C462.3 59.7 497.7 54.3 533.2 51.2C568.7 48 604.3 47 640 49.8C675.7 52.7 711.3 59.3 746.8 63C782.3 66.7 817.7 67.3 853.2 68.2C888.7 69 924.3 70 942.2 70.5L960 71L960 0L942.2 0C924.3 0 888.7 0 853.2 0C817.7 0 782.3 0 746.8 0C711.3 0 675.7 0 640 0C604.3 0 568.7 0 533.2 0C497.7 0 462.3 0 426.8 0C391.3 0 355.7 0 320 0C284.3 0 248.7 0 213.2 0C177.7 0 142.3 0 106.8 0C71.3 0 35.7 0 17.8 0L0 0Z" fill="#11374c"></path><path d="M0 42L17.8 39C35.7 36 71.3 30 106.8 26.3C142.3 22.7 177.7 21.3 213.2 24.2C248.7 27 284.3 34 320 34C355.7 34 391.3 27 426.8 27.8C462.3 28.7 497.7 37.3 533.2 40.7C568.7 44 604.3 42 640 38.7C675.7 35.3 711.3 30.7 746.8 30.2C782.3 29.7 817.7 33.3 853.2 36.2C888.7 39 924.3 41 942.2 42L960 43L960 0L942.2 0C924.3 0 888.7 0 853.2 0C817.7 0 782.3 0 746.8 0C711.3 0 675.7 0 640 0C604.3 0 568.7 0 533.2 0C497.7 0 462.3 0 426.8 0C391.3 0 355.7 0 320 0C284.3 0 248.7 0 213.2 0C177.7 0 142.3 0 106.8 0C71.3 0 35.7 0 17.8 0L0 0Z" fill="#012335"></path></svg>